<svg width="67" height="63" viewBox="0 0 67 63" fill="none" xmlns="http://www.w3.org/2000/svg">
<path d="M50.4116 2.89685C48.9966 2.87222 48.2135 2.89762 47.8983 3.15008C47.6249 3.36944 47.5319 4.00982 47.4599 5.24208C46.9564 13.8718 42.8693 13.7171 39.5512 13.5924C38.7914 13.5639 38.0819 13.537 37.5746 13.6648C36.6792 13.8903 36.3222 14.9817 37.3159 18.874C37.5258 19.6975 37.8728 20.7528 38.2585 21.9273C39.2545 24.9568 40.5008 28.7475 40.5008 31.8147C40.5008 34.2508 39.5535 36.0503 38.4692 38.1123C37.6846 39.6024 36.8218 41.2433 36.2517 43.3669C35.8962 44.6908 35.7281 46.167 35.7281 47.644C35.7281 49.7414 36.0658 51.8057 36.6862 53.4075C37.2431 54.8452 37.9967 55.8728 38.8843 56.1083C39.0036 56.1398 39.1322 56.156 39.2693 56.156H61.1156C61.2527 56.156 61.3812 56.1398 61.5005 56.1083C62.3881 55.8728 63.1417 54.8445 63.6986 53.4075C64.319 51.8057 64.6567 49.7414 64.6567 47.644C64.6567 46.167 64.4887 44.6908 64.1331 43.3669C63.5631 41.2433 62.7003 39.6024 61.9157 38.1123C60.8313 36.0503 59.8841 34.2508 59.8841 31.8147C59.8841 28.7475 61.1303 24.9568 62.1263 21.9273C62.5121 20.7528 62.859 19.6975 63.0689 18.874C64.0627 14.9817 63.7056 13.8903 62.8103 13.6648C62.3029 13.537 61.5935 13.5639 60.8337 13.5924C57.5148 13.7171 53.4284 13.8718 52.925 5.24208L52.9211 5.1705C52.7972 3.04309 52.7863 2.85606 50.4418 2.89685H50.4116ZM46.6993 1.6669C47.4777 1.04422 48.5644 0.964942 50.4271 0.997269C54.591 0.924149 54.6111 1.26281 54.8326 5.0666L54.8373 5.13741C55.2315 11.9014 58.2862 11.7859 60.7655 11.692C61.6725 11.6582 62.5183 11.6259 63.275 11.8167C65.2887 12.324 66.3003 13.9618 64.9286 19.3358C64.704 20.2155 64.3461 21.3046 63.948 22.5161C62.9954 25.414 61.8041 29.04 61.8041 31.8147C61.8041 33.7997 62.6461 35.3991 63.6103 37.2325C64.4445 38.8181 65.3631 40.5637 65.985 42.8828C66.3862 44.3775 66.576 46.0192 66.576 47.644C66.576 49.9516 66.1911 52.2575 65.4832 54.0855C64.711 56.0783 63.5282 57.5407 61.9885 57.9486C61.7019 58.024 61.4107 58.0633 61.1156 58.0633H39.2693C38.9742 58.0633 38.6829 58.024 38.3964 57.9486C36.8566 57.5407 35.6739 56.0783 34.9017 54.0855C34.1938 52.2575 33.8088 49.9516 33.8088 47.644C33.8088 46.0192 33.9986 44.3775 34.3998 42.8828C35.0217 40.5637 35.9403 38.8181 36.7745 37.2325C37.7388 35.3991 38.5807 33.7997 38.5807 31.8147C38.5807 29.04 37.3895 25.414 36.4368 22.5161C36.0387 21.3046 35.6809 20.2155 35.4563 19.3358C34.0846 13.9618 35.0961 12.324 37.1091 11.8167C37.8666 11.6259 38.7124 11.6582 39.6193 11.692C42.0986 11.7859 45.1533 11.9014 45.5476 5.13741C45.6529 3.33403 45.8783 2.32421 46.6993 1.6669Z" fill="white"/>
<path d="M63.8644 56.0825V59.5353C63.8644 60.4859 63.4741 61.3495 62.8444 61.9752C62.2155 62.6002 61.3464 62.9889 60.3899 62.9889H39.995C39.0385 62.9889 38.1695 62.6002 37.5406 61.9752C36.9109 61.3495 36.5205 60.4859 36.5205 59.5353V56.0825H63.8644ZM61.9452 57.9898H38.4398V59.5353C38.4398 59.9594 38.6148 60.3458 38.8975 60.6267C39.1795 60.9069 39.5683 61.0809 39.995 61.0809H60.3899C60.8167 61.0809 61.2055 60.9069 61.4874 60.6267C61.7701 60.3458 61.9452 59.9594 61.9452 59.5353V57.9898Z" fill="white"/>
<path d="M16.6028 2.89685C15.1869 2.87222 14.4047 2.89762 14.0894 3.15008C13.8153 3.36944 13.7231 4.00982 13.6511 5.24208C13.1476 13.8718 9.06042 13.7171 5.74235 13.5924C4.98254 13.5639 4.27307 13.537 3.76575 13.6648C2.8704 13.8903 2.51334 14.9817 3.50629 18.874C3.71696 19.6975 4.06395 20.7528 4.44966 21.9273C5.4457 24.9568 6.69114 28.7475 6.69114 31.8147C6.69114 34.2508 5.74467 36.0503 4.66033 38.1123C3.87574 39.6024 3.01214 41.2433 2.44286 43.3669C2.08735 44.6908 1.91928 46.167 1.91928 47.644C1.91928 49.7414 2.25697 51.8057 2.87737 53.4075C3.43426 54.8452 4.18787 55.8728 5.07471 56.1083C5.19476 56.1398 5.32333 56.156 5.46042 56.156H27.306C27.4438 56.156 27.5724 56.1398 27.6917 56.1083C28.5793 55.8728 29.3329 54.8445 29.8898 53.4075C30.5102 51.8057 30.8479 49.7414 30.8479 47.644C30.8479 46.167 30.679 44.6908 30.3243 43.3669C29.7543 41.2433 28.8914 39.6024 28.1068 38.1123C27.0225 36.0503 26.0753 34.2508 26.0753 31.8147C26.0753 28.7475 27.3215 24.9568 28.3175 21.9273C28.7032 20.7528 29.0502 19.6975 29.2601 18.874C30.2538 14.9817 29.8968 13.8903 29.0014 13.6648C28.4941 13.537 27.7846 13.5639 27.024 13.5924C23.706 13.7171 19.6196 13.8718 19.1161 5.24208L19.1122 5.1705C18.9883 3.04309 18.9767 2.85606 16.633 2.89685H16.6028ZM12.8905 1.6669C13.6681 1.04422 14.7555 0.964942 16.6183 0.997269C20.7821 0.924149 20.8023 1.26281 21.0238 5.0666L21.0277 5.13741C21.4227 11.9014 24.4766 11.7859 26.9567 11.692C27.8636 11.6582 28.7094 11.6259 29.4661 11.8167C31.4799 12.324 32.4914 13.9618 31.1197 19.3358C30.8951 20.2155 30.5373 21.3046 30.1392 22.5161C29.1865 25.414 27.9953 29.04 27.9953 31.8147C27.9953 33.7997 28.8364 35.3991 29.8015 37.2325C30.6357 38.8181 31.5543 40.5637 32.1762 42.8828C32.5774 44.3775 32.7672 46.0192 32.7672 47.644C32.7672 49.9516 32.3822 52.2575 31.6743 54.0855C30.9021 56.0783 29.7194 57.5407 28.1796 57.9486C27.8931 58.024 27.6018 58.0633 27.306 58.0633H5.46042C5.16533 58.0633 4.8741 58.024 4.58753 57.9486C3.04777 57.5407 1.86506 56.0783 1.09286 54.0855C0.38494 52.2575 0 49.9516 0 47.644C0 46.0192 0.189759 44.3775 0.590965 42.8828C1.21291 40.5637 2.1315 38.8181 2.96567 37.2325C3.92995 35.3991 4.77187 33.7997 4.77187 31.8147C4.77187 29.04 3.57987 25.414 2.62797 22.5161C2.22987 21.3046 1.87126 20.2155 1.64742 19.3358C0.275732 13.9618 1.28727 12.324 3.30026 11.8167C4.05775 11.6259 4.90354 11.6582 5.80973 11.692C8.28977 11.7859 11.3445 11.9014 11.7387 5.13741C11.8441 3.33403 12.0687 2.32421 12.8905 1.6669Z" fill="white"/>
<path d="M30.0556 56.0825V59.5353C30.0556 60.4859 29.6652 61.3495 29.0355 61.9752C28.4066 62.6002 27.5376 62.9889 26.5811 62.9889H6.1862C5.22966 62.9889 4.36064 62.6002 3.73172 61.9752C3.10203 61.3495 2.71167 60.4859 2.71167 59.5353V56.0825H30.0556ZM28.1363 57.9898H4.63095V59.5353C4.63095 59.9594 4.80599 60.3458 5.0887 60.6267C5.37062 60.9069 5.75944 61.0809 6.1862 61.0809H26.5811C27.0078 61.0809 27.3959 60.9069 27.6786 60.6267C27.9613 60.3458 28.1363 59.9594 28.1363 59.5353V57.9898Z" fill="white"/>
</svg>
