<svg width="72" height="62" viewBox="0 0 72 62" fill="none" xmlns="http://www.w3.org/2000/svg">
<path d="M1.89873 60.073H69.1423V57.5673C69.1423 56.818 68.9322 56.1509 68.5935 55.68C68.3191 55.299 67.9671 55.0623 67.6038 55.0623H3.43728C3.07456 55.0623 2.72257 55.299 2.44817 55.68C2.10942 56.1509 1.89873 56.818 1.89873 57.5673V60.073ZM0 61.978V57.5673C0 56.4154 0.349468 55.3534 0.91278 54.5711C1.54043 53.6984 2.4324 53.1572 3.43728 53.1572H67.6038C68.6086 53.1572 69.5012 53.6984 70.1289 54.5711C70.6916 55.3534 71.0417 56.4154 71.0417 57.5673V61.978H0Z" fill="white"/>
<path d="M7.2953 28.8967H15.8327C16.43 28.8967 16.9725 29.1417 17.3649 29.5353C17.7579 29.9296 18.0014 30.4739 18.0014 31.0733V34.853C17.3725 34.9676 16.7391 35.0758 16.1026 35.1764V31.0733C16.1026 30.9999 16.0717 30.9322 16.0225 30.8828C15.9733 30.8328 15.9058 30.8024 15.8327 30.8024H7.2953C7.22212 30.8024 7.15463 30.8328 7.10479 30.8828C7.05559 30.9322 7.02468 30.9999 7.02468 31.0733V36.0929C6.3945 36.1213 5.7618 36.1429 5.12595 36.1581V31.0733C5.12595 30.4739 5.37007 29.9296 5.76243 29.5353C6.15479 29.1417 6.69729 28.8967 7.2953 28.8967ZM18.0014 39.3321V52.8857C18.0014 53.4857 17.7579 54.03 17.3649 54.4237H17.3611C16.9687 54.8174 16.4275 55.0623 15.8327 55.0623H7.2953C6.70044 55.0623 6.15858 54.8174 5.76622 54.4237H5.76243C5.37007 54.03 5.12595 53.4857 5.12595 52.8857V40.5491C5.76117 40.5352 6.3945 40.5169 7.02468 40.4897V52.8857C7.02468 52.9598 7.05559 53.0269 7.10479 53.0769L7.1029 53.0788C7.1521 53.1269 7.22023 53.1573 7.2953 53.1573H15.8327C15.9071 53.1573 15.9752 53.1269 16.0244 53.0788L16.0225 53.0769C16.0717 53.0269 16.1026 52.9598 16.1026 52.8857V39.6314C16.7385 39.5378 17.3718 39.4384 18.0014 39.3321Z" fill="white"/>
<path d="M23.0523 25.6702H31.8256C32.4324 25.6702 32.9831 25.9183 33.3818 26.3183C33.7804 26.7183 34.0283 27.2714 34.0283 27.8803V30.0568C33.4026 30.3258 32.7692 30.5872 32.129 30.8404V27.8803C32.129 27.7974 32.0949 27.7214 32.0394 27.6657C31.9839 27.61 31.9082 27.5752 31.8256 27.5752H23.0523C22.9703 27.5752 22.8939 27.61 22.8384 27.6657C22.7829 27.7214 22.7489 27.7974 22.7489 27.8803V33.8334C22.1206 33.9891 21.4872 34.1365 20.8495 34.2777V27.8803C20.8495 27.2714 21.0974 26.7183 21.4961 26.3183C21.8947 25.9183 22.4454 25.6702 23.0523 25.6702ZM34.0283 34.9587V52.8522C34.0283 53.461 33.7804 54.0136 33.3818 54.4136C32.9831 54.8136 32.4324 55.0623 31.8256 55.0623H23.0523C22.4454 55.0623 21.8947 54.8136 21.4961 54.4136C21.0974 54.0136 20.8495 53.461 20.8495 52.8522V38.7992C21.4866 38.6694 22.1199 38.5327 22.7489 38.3897V52.8522C22.7489 52.9351 22.7829 53.0111 22.8384 53.0667C22.8939 53.1224 22.9703 53.1573 23.0523 53.1573H31.8256C31.9082 53.1573 31.9839 53.1224 32.0394 53.0667C32.0949 53.0111 32.129 52.9351 32.129 52.8522V35.6637C32.768 35.4359 33.4007 35.2011 34.0283 34.9587Z" fill="white"/>
<path d="M39.0792 21.4714H47.8519C48.0102 21.4714 48.1641 21.4885 48.313 21.5208C47.5314 22.1562 46.724 22.7752 45.8926 23.3771H39.0792C38.9966 23.3771 38.9209 23.4113 38.8654 23.467C38.8099 23.5227 38.7752 23.5986 38.7752 23.6815V27.7866C38.1513 28.1163 37.5186 28.4378 36.8764 28.7511V23.6815C36.8764 23.0727 37.1237 22.5202 37.5224 22.1202C37.9211 21.7202 38.4724 21.4714 39.0792 21.4714ZM50.0547 26.3733V52.8522C50.0547 53.461 49.8074 54.0135 49.4081 54.4135C49.0094 54.8135 48.4587 55.0623 47.8519 55.0623H39.0792C38.4724 55.0623 37.9211 54.8135 37.5224 54.4135C37.1237 54.0135 36.8764 53.461 36.8764 52.8522V33.7935C37.5161 33.5169 38.1494 33.2333 38.7752 32.9422V52.8522C38.7752 52.9351 38.8099 53.011 38.8654 53.0667C38.9209 53.1224 38.9966 53.1572 39.0792 53.1572H47.8519C47.9345 53.1572 48.0102 53.1224 48.0657 53.0667C48.1212 53.011 48.1559 52.9351 48.1559 52.8522V27.6916C48.8006 27.2606 49.4333 26.8214 50.0547 26.3733Z" fill="white"/>
<path d="M60.4744 16.7247H63.8788C64.4857 16.7247 65.0364 16.9728 65.435 17.3728C65.8337 17.7728 66.081 18.3259 66.081 18.9341V52.8522C66.081 53.461 65.8337 54.0136 65.435 54.4136C65.0364 54.8136 64.4857 55.0623 63.8788 55.0623H55.1056C54.4987 55.0623 53.948 54.8136 53.5494 54.4136C53.1507 54.0136 52.9028 53.461 52.9028 52.8522V24.193C53.5519 23.6651 54.1846 23.1265 54.8021 22.579V52.8522C54.8021 52.9351 54.8362 53.011 54.8917 53.0667C54.9472 53.1224 55.0229 53.1572 55.1056 53.1572H63.8788C63.9608 53.1572 64.0372 53.1224 64.0927 53.0667C64.1482 53.011 64.1823 52.9351 64.1823 52.8522V18.9341C64.1823 18.8519 64.1482 18.7753 64.0927 18.7202C64.0372 18.6645 63.9608 18.6297 63.8788 18.6297H58.8198C59.3919 18.0044 59.9426 17.3683 60.4744 16.7247Z" fill="white"/>
<path d="M65.0043 12.416C59.7162 21.0501 51.0249 28.4759 40.1864 33.7158C29.5232 38.8701 16.7764 41.9151 3.14907 41.9151C2.28297 41.9151 1.49824 41.5625 0.930512 40.9929C0.362784 40.4233 0.0120544 39.6366 0.0120544 38.767C0.0120544 37.898 0.362784 37.1113 0.930512 36.5417C1.49824 35.9721 2.28297 35.6195 3.14907 35.6195C15.5836 35.6195 27.1185 32.8803 36.6576 28.1937C46.3153 23.4494 53.9216 16.7159 58.3297 8.82106C58.1796 8.7198 58.0364 8.61916 57.9146 8.5198C57.4573 8.14828 56.7615 7.52361 56.4593 6.75399C56.0651 5.7502 56.2348 4.68502 57.8553 3.86604L65.0005 0.254686C65.2478 0.130004 65.5007 0.0521564 65.7505 0.0186124C66.1719 -0.0377162 66.5731 0.0350679 66.9219 0.219876C67.2733 0.406583 67.5603 0.698353 67.7521 1.08063C67.8637 1.30214 67.9413 1.55531 67.9785 1.83505L69.0339 9.79194C69.1058 10.3318 69.073 10.7818 68.9626 11.1552C68.8163 11.6539 68.5412 12.0153 68.1886 12.2704C67.8625 12.5065 67.4865 12.633 67.0979 12.6849C66.4488 12.7717 65.7568 12.6413 65.2654 12.4957C65.1733 12.4685 65.0863 12.4419 65.0043 12.416ZM39.3625 32.0038C50.1468 26.7905 58.7227 19.3748 63.7761 10.7767L64.1823 10.0862L64.9298 10.3748C65.0219 10.4103 65.174 10.4647 65.3878 10.5381C65.5543 10.5957 65.6931 10.6413 65.7997 10.6729C66.1057 10.7634 66.5182 10.847 66.8532 10.8021C66.951 10.7894 67.033 10.7666 67.0834 10.7299C67.1068 10.7128 67.1282 10.678 67.1452 10.6191C67.1844 10.4875 67.1919 10.2983 67.1572 10.0375L66.1019 2.08062C66.0943 2.02302 66.0798 1.97429 66.0609 1.93632C66.0508 1.91543 66.0432 1.90404 66.0394 1.90214C66.0331 1.89897 66.018 1.89897 65.9953 1.90151C65.9574 1.90657 65.9095 1.92302 65.8533 1.95151L58.7082 5.56286C58.2729 5.78312 58.1789 5.94514 58.2243 6.06223C58.3625 6.41286 58.8097 6.80336 59.1087 7.04639C59.2343 7.14829 59.4569 7.29323 59.6746 7.435C59.8184 7.52867 59.961 7.62107 60.118 7.73183L60.8062 8.21474L60.4114 8.95587C60.2568 9.24574 60.4618 8.86663 60.2612 9.24004L60.159 9.42612C55.5876 17.7995 47.6186 24.9215 37.4884 29.8981C27.6913 34.7113 15.8687 37.5246 3.14907 37.5246C2.80717 37.5246 2.49744 37.6638 2.2735 37.8885C2.04957 38.1132 1.91079 38.424 1.91079 38.767C1.91079 39.1107 2.04957 39.4214 2.2735 39.6461C2.49744 39.8708 2.80717 40.01 3.14907 40.01C16.4888 40.01 28.9517 37.0366 39.3625 32.0038Z" fill="white"/>
</svg>
