<svg width="70" height="62" viewBox="0 0 70 62" fill="none" xmlns="http://www.w3.org/2000/svg">
<path d="M52.6101 60.218C52.6101 60.7872 52.153 61.2443 51.5839 61.2443C51.019 61.2443 50.5576 60.7872 50.5576 60.218V54.2158C50.5576 51.6071 53.2396 49.9599 56.6461 49.2829C57.8275 49.0501 59.1168 48.9294 60.4104 48.925C61.704 48.9207 62.9846 49.0372 64.1532 49.27C67.4475 49.9254 70.0001 51.5467 70.0001 54.2158V60.218C70.0001 60.7872 69.5431 61.2443 68.9739 61.2443C68.409 61.2443 67.9477 60.7872 67.9477 60.218V54.2158C67.9477 52.7368 66.1151 51.7537 63.7522 51.2837C62.6957 51.0724 61.5488 50.9689 60.4104 50.9732C59.2677 50.9732 58.1164 51.0853 57.0385 51.2966C54.5634 51.7882 52.6101 52.7842 52.6101 54.2158V60.218Z" fill="white"/>
<path d="M60.281 37.4984C61.6824 37.4984 62.9544 38.0676 63.8729 38.986C64.7913 39.9088 65.3605 41.1765 65.3605 42.5822C65.3605 43.9836 64.7655 45.635 63.8125 46.8683C62.9113 48.0325 61.6781 48.8604 60.281 48.8604C58.8797 48.8604 57.6465 48.0325 56.7453 46.8683C55.7966 45.635 55.1973 43.9836 55.1973 42.5822C55.1973 41.1765 55.7664 39.9088 56.6849 38.986C57.6076 38.0676 58.8754 37.4984 60.281 37.4984ZM62.4198 40.4392C61.8721 39.8915 61.1132 39.5552 60.281 39.5552C59.4445 39.5552 58.6856 39.8915 58.138 40.4392C57.5904 40.9868 57.2541 41.7457 57.2541 42.5822C57.2541 43.561 57.6809 44.7295 58.3665 45.6135C58.9055 46.312 59.5825 46.8079 60.281 46.8079C60.9753 46.8079 61.6522 46.312 62.1912 45.6135C62.8768 44.7295 63.308 43.561 63.308 42.5822C63.308 41.7457 62.9674 40.9868 62.4198 40.4392Z" fill="white"/>
<path d="M52.6101 17.7066C52.6101 18.2715 52.153 18.7329 51.5839 18.7329C51.019 18.7329 50.5576 18.2715 50.5576 17.7066C50.5576 15.0979 53.2396 13.4464 56.6461 12.7738C57.8275 12.5409 59.1168 12.4202 60.4104 12.4159C61.704 12.4116 62.9846 12.528 64.1532 12.7608C67.4475 13.4163 70.0001 15.0332 70.0001 17.7066V23.7089C70.0001 24.2737 69.5431 24.7351 68.9739 24.7351C68.409 24.7351 67.9477 24.2737 67.9477 23.7089V17.7066C67.9477 16.2233 66.1151 15.2445 63.7522 14.7745C62.6957 14.5632 61.5488 14.4597 60.4104 14.4641C59.2677 14.4641 58.1164 14.5762 57.0385 14.7875C54.5634 15.279 52.6101 16.2751 52.6101 17.7066Z" fill="white"/>
<path d="M60.281 0.989258C61.6824 0.989258 62.9544 1.55843 63.8729 2.47688C64.7913 3.39532 65.3605 4.66734 65.3605 6.06872C65.3605 7.47441 64.7655 9.12589 63.8125 10.3591C62.9113 11.5233 61.6781 12.3512 60.281 12.3512C58.8797 12.3512 57.6465 11.5233 56.7453 10.3591C55.7966 9.12589 55.1973 7.47441 55.1973 6.06872C55.1973 4.66734 55.7664 3.39532 56.6849 2.47688C57.6076 1.55843 58.8754 0.989258 60.281 0.989258V0.989258ZM62.4198 3.93C61.8721 3.38238 61.1132 3.04174 60.281 3.04174C59.4445 3.04174 58.6856 3.38238 58.138 3.93C57.5904 4.47762 57.2541 5.23652 57.2541 6.06872C57.2541 7.04753 57.6809 8.22038 58.3665 9.10433C58.9055 9.80286 59.5825 10.2987 60.281 10.2987C60.9753 10.2987 61.6522 9.80286 62.1912 9.10433C62.8768 8.22038 63.308 7.04753 63.308 6.06872C63.308 5.23652 62.9674 4.47762 62.4198 3.93Z" fill="white"/>
<path d="M2.05248 60.218C2.05248 60.7872 1.59542 61.2443 1.02624 61.2443C0.461377 61.2443 0 60.7872 0 60.218V54.2158C0 51.6071 2.68203 49.9599 6.08846 49.2829C7.26993 49.0501 8.5592 48.9294 9.85278 48.925C11.1464 48.9207 12.427 49.0372 13.5999 49.27C16.8899 49.9254 19.4425 51.5467 19.4425 54.2158V60.218C19.4425 60.7872 18.9855 61.2443 18.4163 61.2443C17.8514 61.2443 17.39 60.7872 17.39 60.218V54.2158C17.39 52.7368 15.5575 51.7537 13.1988 51.2837C12.1381 51.0724 10.9911 50.9689 9.85278 50.9732C8.71012 50.9732 7.55883 51.0853 6.48084 51.2966C4.00579 51.7882 2.05248 52.7842 2.05248 54.2158V60.218Z" fill="white"/>
<path d="M9.72342 37.4984C11.1248 37.4984 12.3968 38.0676 13.3153 38.986C14.2337 39.9088 14.8029 41.1765 14.8029 42.5822C14.8029 43.9836 14.2078 45.635 13.2549 46.8683C12.3537 48.0325 11.1205 48.8604 9.72342 48.8604C8.32204 48.8604 7.08883 48.0325 6.18763 46.8683C5.23901 45.635 4.63965 43.9836 4.63965 42.5822C4.63965 41.1765 5.20882 39.9088 6.12727 38.986C7.05002 38.0676 8.31773 37.4984 9.72342 37.4984ZM11.8621 40.4392C11.3145 39.8915 10.5599 39.5552 9.72342 39.5552C8.88691 39.5552 8.12801 39.8915 7.58039 40.4392C7.03277 40.9868 6.69644 41.7457 6.69644 42.5822C6.69644 43.561 7.12332 44.7295 7.80892 45.6135C8.34792 46.312 9.02489 46.8079 9.72342 46.8079C10.4176 46.8079 11.0946 46.312 11.6336 45.6135C12.3192 44.7295 12.7504 43.561 12.7504 42.5822C12.7504 41.7457 12.4098 40.9868 11.8621 40.4392Z" fill="white"/>
<path d="M19.4425 17.7066C19.4425 18.2715 18.9855 18.7329 18.4163 18.7329C17.8514 18.7329 17.39 18.2715 17.39 17.7066C17.39 16.2751 15.4411 15.279 12.9617 14.7875C11.888 14.5762 10.7324 14.4641 9.59406 14.4641C8.4514 14.4597 7.30874 14.5632 6.248 14.7745C3.88506 15.2445 2.05248 16.2233 2.05248 17.7066V23.7089C2.05248 24.2737 1.59542 24.7351 1.02624 24.7351C0.461377 24.7351 0 24.2737 0 23.7089V17.7066C0 15.0332 2.55267 13.4163 5.84699 12.7608C7.01552 12.528 8.30048 12.4116 9.59406 12.4159C10.8876 12.4202 12.1726 12.5409 13.3541 12.7738C16.7605 13.4464 19.4425 15.0979 19.4425 17.7066Z" fill="white"/>
<path d="M9.72342 3.04174C8.88691 3.04174 8.12801 3.38238 7.58039 3.93C7.03277 4.47762 6.69644 5.23652 6.69644 6.06872C6.69644 7.04753 7.12332 8.22038 7.80892 9.10433C8.34792 9.80286 9.02489 10.2987 9.72342 10.2987C10.4176 10.2987 11.0946 9.80286 11.6336 9.10433C12.3192 8.22038 12.7504 7.04753 12.7504 6.06872C12.7504 5.23652 12.4098 4.47762 11.8621 3.93C11.3145 3.38238 10.5599 3.04174 9.72342 3.04174ZM6.12727 2.47688C7.05002 1.55843 8.31773 0.989258 9.72342 0.989258C11.1248 0.989258 12.3968 1.55843 13.3153 2.47688C14.2337 3.39532 14.8029 4.66734 14.8029 6.06872C14.8029 7.47441 14.2078 9.12589 13.2549 10.3591C12.3537 11.5233 11.1205 12.3512 9.72342 12.3512C8.32204 12.3512 7.08883 11.5233 6.18763 10.3591C5.23901 9.12589 4.63965 7.47441 4.63965 6.06872C4.63965 4.66734 5.20882 3.39532 6.12727 2.47688Z" fill="white"/>
<path d="M27.3332 17.7066C27.3332 18.2715 26.8718 18.7329 26.3069 18.7329C25.7377 18.7329 25.2764 18.2715 25.2764 17.7066C25.2764 15.0979 27.9584 13.4464 31.3648 12.7738C32.5463 12.5409 33.8356 12.4202 35.1291 12.4159C36.4227 12.4116 37.7077 12.528 38.8762 12.7608C42.1705 13.4163 44.7232 15.0332 44.7232 17.7066C44.7232 18.2715 44.2618 18.7329 43.697 18.7329C43.1278 18.7329 42.6664 18.2715 42.6664 17.7066C42.6664 16.2233 40.8382 15.2445 38.4752 14.7745C37.4145 14.5632 36.2718 14.4597 35.1291 14.4641C33.9908 14.4641 32.8352 14.5762 31.7615 14.7875C29.2822 15.279 27.3332 16.2751 27.3332 17.7066Z" fill="white"/>
<path d="M35.0004 0.989258C36.4061 0.989258 37.6738 1.55843 38.5922 2.47688C39.515 3.39532 40.0841 4.66734 40.0841 6.06872C40.0841 7.47441 39.4848 9.12589 38.5362 10.3591C37.635 11.5233 36.4017 12.3512 35.0004 12.3512C33.6033 12.3512 32.3701 11.5233 31.4689 10.3591C30.5159 9.12589 29.9209 7.47441 29.9209 6.06872C29.9209 4.66734 30.4901 3.39532 31.4085 2.47688C32.327 1.55843 33.599 0.989258 35.0004 0.989258V0.989258ZM37.1434 3.93C36.5958 3.38238 35.8369 3.04174 35.0004 3.04174C34.1638 3.04174 33.4093 3.38238 32.8616 3.93C32.314 4.47762 31.9734 5.23652 31.9734 6.06872C31.9734 7.04753 32.4046 8.22038 33.0902 9.10433C33.6249 9.80286 34.3061 10.2987 35.0004 10.2987C35.6989 10.2987 36.3759 9.80286 36.9149 9.10433C37.6005 8.22038 38.0273 7.04753 38.0273 6.06872C38.0273 5.23652 37.691 4.47762 37.1434 3.93Z" fill="white"/>
<path d="M14.8113 35.8125C14.8113 36.3817 14.3499 36.8387 13.785 36.8387C13.2159 36.8387 12.7588 36.3817 12.7588 35.8125C12.7588 33.2038 15.4408 31.5566 18.8472 30.8796C20.0287 30.6468 21.3137 30.5261 22.6073 30.5261C23.9008 30.5217 25.1858 30.6339 26.3543 30.8667C29.6487 31.5264 32.2013 33.1434 32.2013 35.8125C32.2013 36.3817 31.7399 36.8387 31.1751 36.8387C30.6059 36.8387 30.1488 36.3817 30.1488 35.8125C30.1488 34.3335 28.3163 33.3547 25.9533 32.8804C24.8926 32.6691 23.7499 32.5656 22.6073 32.5699C21.4689 32.5742 20.3133 32.682 19.2396 32.8976C16.7603 33.3849 14.8113 34.3852 14.8113 35.8125Z" fill="white"/>
<path d="M22.4779 19.0951C23.8836 19.0951 25.1513 19.6643 26.0741 20.587C26.9925 21.5055 27.5617 22.7775 27.5617 24.1789C27.5617 25.5802 26.9623 27.2317 26.0137 28.4649C25.1125 29.6335 23.8793 30.4614 22.4779 30.4614C21.0808 30.4614 19.8476 29.6335 18.9464 28.4649C17.9935 27.2317 17.3984 25.5802 17.3984 24.1789C17.3984 22.7775 17.9676 21.5055 18.8861 20.587C19.8045 19.6643 21.0765 19.0951 22.4779 19.0951ZM24.6209 22.0401C24.0733 21.4882 23.3144 21.1519 22.4779 21.1519C21.6414 21.1519 20.8868 21.4882 20.3392 22.0401C19.7916 22.5878 19.4509 23.3424 19.4509 24.1789C19.4509 25.1577 19.8821 26.3262 20.5677 27.2145C21.1067 27.913 21.7837 28.4046 22.4779 28.4046C23.1764 28.4046 23.8534 27.913 24.3924 27.2145C25.078 26.3262 25.5049 25.1577 25.5049 24.1789C25.5049 23.3424 25.1685 22.5878 24.6209 22.0401Z" fill="white"/>
<path d="M39.8556 35.8125C39.8556 36.3817 39.3942 36.8387 38.8251 36.8387C38.2602 36.8387 37.7988 36.3817 37.7988 35.8125C37.7988 33.2038 40.4809 31.5566 43.8873 30.8796C45.0688 30.6468 46.358 30.5261 47.6516 30.5261C48.9452 30.5217 50.2301 30.6339 51.3987 30.8667C54.693 31.5264 57.2457 33.1434 57.2457 35.8125C57.2457 36.3817 56.7843 36.8387 56.2151 36.8387C55.6502 36.8387 55.1889 36.3817 55.1889 35.8125C55.1889 34.3335 53.3606 33.3547 50.9977 32.8804C49.9369 32.6691 48.79 32.5656 47.6516 32.5699C46.5089 32.5742 45.3577 32.682 44.2797 32.8976C41.8046 33.3849 39.8556 34.3852 39.8556 35.8125Z" fill="white"/>
<path d="M47.5223 19.0951C48.9236 19.0951 50.1957 19.6643 51.1141 20.587C52.0325 21.5055 52.6017 22.7775 52.6017 24.1789C52.6017 25.5802 52.0067 27.2317 51.0537 28.4649C50.1568 29.6335 48.9236 30.4614 47.5223 30.4614C46.1209 30.4614 44.8877 29.6335 43.9865 28.4649C43.0378 27.2317 42.4385 25.5802 42.4385 24.1789C42.4385 22.7775 43.0077 21.5055 43.9304 20.587C44.8488 19.6643 46.1209 19.0951 47.5223 19.0951ZM49.661 22.0401C49.1134 21.4882 48.3588 21.1519 47.5223 21.1519C46.6857 21.1519 45.9311 21.4882 45.3792 22.0401C44.8316 22.5878 44.4953 23.3424 44.4953 24.1789C44.4953 25.1577 44.9265 26.3262 45.6078 27.2145C46.1467 27.913 46.8237 28.4046 47.5223 28.4046C48.2208 28.4046 48.8978 27.913 49.4368 27.2145C50.118 26.3262 50.5492 25.1577 50.5492 24.1789C50.5492 23.3424 50.2086 22.5878 49.661 22.0401Z" fill="white"/>
<path d="M27.3332 60.218C27.3332 60.7872 26.8718 61.2443 26.3069 61.2443C25.7377 61.2443 25.2764 60.7872 25.2764 60.218V54.2158C25.2764 51.6071 27.9584 49.9599 31.3648 49.2829C32.5463 49.0501 33.8356 48.9294 35.1291 48.925C36.4227 48.9207 37.7077 49.0372 38.8762 49.27C42.1705 49.9254 44.7232 51.5467 44.7232 54.2158V60.218C44.7232 60.7872 44.2618 61.2443 43.697 61.2443C43.1278 61.2443 42.6664 60.7872 42.6664 60.218V54.2158C42.6664 52.7368 40.8382 51.7537 38.4752 51.2837C37.4145 51.0724 36.2718 50.9689 35.1291 50.9732C33.9908 50.9732 32.8352 51.0853 31.7615 51.2966C29.2822 51.7882 27.3332 52.7842 27.3332 54.2158V60.218Z" fill="white"/>
<path d="M35.0004 37.4984C36.4061 37.4984 37.6738 38.0676 38.5922 38.986C39.515 39.9088 40.0841 41.1765 40.0841 42.5822C40.0841 43.9836 39.4848 45.635 38.5362 46.8683C37.635 48.0325 36.4017 48.8604 35.0004 48.8604C33.6033 48.8604 32.3701 48.0325 31.4689 46.8683C30.5159 45.635 29.9209 43.9836 29.9209 42.5822C29.9209 41.1765 30.4901 39.9088 31.4085 38.986C32.327 38.0676 33.599 37.4984 35.0004 37.4984ZM37.1434 40.4392C36.5958 39.8915 35.8369 39.5552 35.0004 39.5552C34.1638 39.5552 33.4093 39.8915 32.8616 40.4392C32.314 40.9868 31.9734 41.7457 31.9734 42.5822C31.9734 43.561 32.4046 44.7295 33.0902 45.6135C33.6249 46.312 34.3061 46.8079 35.0004 46.8079C35.6989 46.8079 36.3759 46.312 36.9149 45.6135C37.6005 44.7295 38.0273 43.561 38.0273 42.5822C38.0273 41.7457 37.691 40.9868 37.1434 40.4392Z" fill="white"/>
</svg>
