<svg width="66" height="63" viewBox="0 0 66 63" fill="none" xmlns="http://www.w3.org/2000/svg">
<path d="M22.17 41.6398C21.8587 42.0309 21.2876 42.0952 20.8966 41.7839C20.5056 41.47 20.4413 40.9015 20.7551 40.5105L37.3143 19.8198C37.6256 19.4288 38.1967 19.3671 38.5852 19.6783C38.9762 19.9896 39.0405 20.5607 38.7292 20.9517L22.17 41.6398Z" fill="white"/>
<path d="M22.9469 20.167C24.156 20.167 25.2519 20.6583 26.0442 21.4507C26.8365 22.243 27.3279 23.3389 27.3279 24.548C27.3279 25.757 26.8365 26.8529 26.0442 27.6453C25.2519 28.4376 24.156 28.929 22.9469 28.929C21.7378 28.929 20.6419 28.4376 19.8496 27.6453C19.0547 26.8529 18.5659 25.757 18.5659 24.548C18.5659 23.3389 19.0547 22.243 19.8496 21.4507C20.6419 20.6583 21.7378 20.167 22.9469 20.167ZM24.7579 22.7369C24.2949 22.2739 23.6543 21.9883 22.9469 21.9883C22.2395 21.9883 21.5989 22.2739 21.1359 22.7369C20.6728 23.2 20.3873 23.8405 20.3873 24.548C20.3873 25.2554 20.6728 25.896 21.1359 26.359C21.5989 26.8221 22.2395 27.1076 22.9469 27.1076C23.6543 27.1076 24.2949 26.8221 24.7579 26.359C25.221 25.896 25.5065 25.2554 25.5065 24.548C25.5065 23.8405 25.221 23.2 24.7579 22.7369Z" fill="white"/>
<path d="M36.5375 32.5305C37.7466 32.5305 38.8424 33.0219 39.6348 33.8142C40.4271 34.6065 40.9185 35.7024 40.9185 36.9115C40.9185 38.1231 40.4271 39.2165 39.6348 40.0114C38.8424 40.8037 37.7466 41.2925 36.5375 41.2925C35.3258 41.2925 34.2325 40.8037 33.4376 40.0114C32.6453 39.2165 32.1565 38.1231 32.1565 36.9115C32.1565 35.7024 32.6453 34.6065 33.4376 33.8142C34.2325 33.0219 35.3258 32.5305 36.5375 32.5305ZM38.3459 35.103C37.8829 34.64 37.2449 34.3519 36.5375 34.3519C35.83 34.3519 35.1895 34.64 34.7264 35.103C34.2634 35.5661 33.9753 36.2066 33.9753 36.9115C33.9753 37.6189 34.2634 38.2595 34.7264 38.7225C35.1895 39.1856 35.83 39.4737 36.5375 39.4737C37.2449 39.4737 37.8829 39.1856 38.3459 38.7225C38.8116 38.2595 39.0971 37.6189 39.0971 36.9115C39.0971 36.2066 38.8116 35.5661 38.3459 35.103Z" fill="white"/>
<path d="M43.5938 39.5998L64.6472 45.4677C65.1309 45.6014 65.4138 46.1005 65.2801 46.5841C65.2261 46.7771 65.1154 46.9366 64.9714 47.0523V47.0549L56.3972 53.8515L50.2463 62.6031C49.9582 63.0148 49.3897 63.1125 48.9807 62.8244C48.816 62.7086 48.7028 62.5491 48.6411 62.3716C46.3207 55.467 43.972 48.5701 41.6362 41.6707C41.4998 41.2693 41.487 40.8912 41.5796 40.5671C41.6413 40.3407 41.7571 40.14 41.914 39.9702H41.9166L41.914 39.9677C42.0709 39.8004 42.2664 39.677 42.4902 39.6024C42.8092 39.4943 43.1848 39.4866 43.5938 39.5998ZM62.4452 46.7385L43.4806 41.4546L49.7884 60.0924L54.9772 52.7144C55.0286 52.6398 55.0904 52.5704 55.165 52.5112L62.4452 46.7385Z" fill="white"/>
<path d="M43.2233 55.1892C43.6632 54.9474 44.2163 55.1068 44.4581 55.5467C44.6999 55.9866 44.5378 56.5397 44.0979 56.7816C41.9422 57.9726 39.6166 58.9039 37.1624 59.5341C34.7803 60.1464 32.2927 60.4705 29.7408 60.4705C21.5293 60.4705 14.0922 57.1417 8.71051 51.76C3.32882 46.3783 0 38.9438 0 30.7298C0 22.5183 3.32882 15.0812 8.71051 9.69952C14.0922 4.31784 21.5293 0.989014 29.7408 0.989014C37.9548 0.989014 45.3893 4.31784 50.771 9.69952C56.1527 15.0812 59.4815 22.5183 59.4815 30.7298C59.4815 32.5717 59.3117 34.3853 58.985 36.1552C58.6532 37.9662 58.1567 39.713 57.5187 41.3799C57.3386 41.8481 56.8138 42.0848 56.3456 41.9047C55.8749 41.7272 55.6408 41.2024 55.8183 40.7317C56.4254 39.1522 56.891 37.5135 57.1997 35.8285C57.5033 34.1846 57.6628 32.4816 57.6628 30.7298C57.6628 23.02 54.5372 16.0408 49.4847 10.9883C44.4323 5.93595 37.4506 2.81035 29.7408 2.81035C22.031 2.81035 15.0517 5.93595 9.99934 10.9883C4.94693 16.0408 1.82134 23.02 1.82134 30.7298C1.82134 38.4396 4.94693 45.4214 9.99934 50.4738C15.0517 55.5262 22.031 58.6518 29.7408 58.6518C32.1589 58.6518 34.4948 58.3482 36.7148 57.7771C39.0044 57.188 41.1884 56.3134 43.2233 55.1892Z" fill="white"/>
</svg>
